HIERARCHY
ROOT Hips
{
	OFFSET -0.001795 -0.223333 0.028219
	CHANNELS 6 Xposition Yposition Zposition Zrotation Yrotation Xrotation 
	JOINT LeftUpLeg
	{
		OFFSET 0.069520 -0.091406 -0.006815
		CHANNELS 3 Zrotation Yrotation Xrotation
		JOINT LeftLeg
		{
			OFFSET 0.034277 -0.375199 -0.004496
			CHANNELS 3 Zrotation Yrotation Xrotation
			JOINT LeftFoot
			{
				OFFSET -0.013596 -0.397961 -0.043693
				CHANNELS 3 Zrotation Yrotation Xrotation
				JOINT LeftToe
				{
					OFFSET 0.026358 -0.055791 0.119288
					CHANNELS 3 Zrotation Yrotation Xrotation
					End Site
					{
						OFFSET 0.000000 0.000000 0.000000
					}
				}
			}
		}
	}
	JOINT RightUpLeg
	{
		OFFSET -0.067670 -0.090522 -0.004320
		CHANNELS 3 Zrotation Yrotation Xrotation
		JOINT RightLeg
		{
			OFFSET -0.038290 -0.382569 -0.008850
			CHANNELS 3 Zrotation Yrotation Xrotation
			JOINT RightFoot
			{
				OFFSET 0.015774 -0.398415 -0.042312
				CHANNELS 3 Zrotation Yrotation Xrotation
				JOINT RightToe
				{
					OFFSET -0.025372 -0.048144 0.123348
					CHANNELS 3 Zrotation Yrotation Xrotation
					End Site
					{
						OFFSET 0.000000 0.000000 0.000000
					}
				}
			}
		}
	}
	JOINT Spine
	{
		OFFSET -0.002533 0.108963 -0.026696
		CHANNELS 3 Zrotation Yrotation Xrotation
		JOINT Spine1
		{
			OFFSET 0.005487 0.135180 0.001092
			CHANNELS 3 Zrotation Yrotation Xrotation
			JOINT Spine2
			{
				OFFSET 0.001457 0.052922 0.025425
				CHANNELS 3 Zrotation Yrotation Xrotation
				JOINT Neck
				{
					OFFSET -0.002778 0.213870 -0.042857
					CHANNELS 3 Zrotation Yrotation Xrotation
					JOINT Head
					{
						OFFSET 0.005152 0.064970 0.051349
						CHANNELS 3 Zrotation Yrotation Xrotation
						End Site
						{
							OFFSET 0.000000 0.000000 0.000000
						}
					}
				}
				JOINT LeftShoulder
				{
					OFFSET 0.078845 0.121749 -0.034090
					CHANNELS 3 Zrotation Yrotation Xrotation
					JOINT LeftArm
					{
						OFFSET 0.090977 0.030469 -0.008868
						CHANNELS 3 Zrotation Yrotation Xrotation
						JOINT LeftForeArm
						{
							OFFSET 0.259612 -0.012772 -0.027456
							CHANNELS 3 Zrotation Yrotation Xrotation
							JOINT LeftHand
							{
								OFFSET 0.249234 0.008986 -0.001171
								CHANNELS 3 Zrotation Yrotation Xrotation
								End Site
								{
									OFFSET 0.000000 0.000000 0.000000
								}
							}
						}
					}
				}
				JOINT RightShoulder
				{
					OFFSET -0.081759 0.118833 -0.038615
					CHANNELS 3 Zrotation Yrotation Xrotation
					JOINT RightArm
					{
						OFFSET -0.096012 0.032551 -0.009143
						CHANNELS 3 Zrotation Yrotation Xrotation
						JOINT RightForeArm
						{
							OFFSET -0.253742 -0.013329 -0.021401
							CHANNELS 3 Zrotation Yrotation Xrotation
							JOINT RightHand
							{
								OFFSET -0.255298 0.007772 -0.005559
								CHANNELS 3 Zrotation Yrotation Xrotation
								End Site
								{
									OFFSET 0.000000 0.000000 0.000000
								}
							}
						}
					}
				}
			}
		}
	}
}
MOTION
Frames: 14
Frame Time: 0.050000
0.000000 0.891571 0.000000 1.787689 -7.482984 -15.861414 1.705397 -1.401194 -22.313172 -6.925930 2.964498 35.200855 9.303850 18.705776 -5.945452 0.000000 0.000000 0.000000 -2.107483 -0.060686 1.029800 14.396663 -4.921032 74.539333 -7.899805 -19.365492 3.899815 0.000000 0.000000 0.000000 -5.670184 -0.257108 3.189074 12.450665 -0.028452 -43.005995 -1.285629 6.172652 29.072787 -0.397322 -1.045262 21.511673 0.000000 0.000000 0.000000 19.204355 -19.688306 2.799868 32.868778 -46.646026 -13.829571 68.762210 1.493405 -1.236846 0.000000 0.000000 0.000000 -37.039125 15.840998 -1.205827 -42.169117 40.564785 -13.720912 -40.750814 -17.518260 5.483476 0.000000 0.000000 0.000000 
0.010494 0.897399 0.065233 0.010803 -6.550994 -19.339683 4.018321 -0.982633 -25.422107 -5.275775 1.793023 33.693309 6.036275 12.876281 6.614705 0.000000 0.000000 0.000000 -1.354291 0.180584 -2.255532 18.140352 -10.052447 81.768087 -7.112831 -18.282792 15.894762 0.000000 0.000000 0.000000 -5.151536 -0.341694 5.546370 14.306464 1.476770 -53.342681 -0.671935 4.910458 40.075601 -0.506922 -0.690362 23.923584 0.000000 0.000000 0.000000 21.393729 -15.148427 0.300082 32.733384 -52.272778 -15.855386 74.503657 6.188850 1.173675 0.000000 0.000000 0.000000 -36.721769 13.019531 -3.230584 -51.413244 42.067263 -16.972285 -33.541094 -22.924130 4.910453 0.000000 0.000000 0.000000 
0.022246 0.901630 0.130588 -0.029759 -6.714224 -21.720480 3.557365 -0.954536 -22.034824 -5.250657 1.618677 29.641071 7.457241 15.288834 6.048179 0.000000 0.000000 0.000000 -0.685347 -0.065655 0.837433 18.341858 -9.624941 78.267371 -6.755500 -17.476578 11.645994 0.000000 0.000000 0.000000 -2.379242 -0.307921 6.037732 10.895208 0.722012 -49.096478 0.601509 5.848931 36.437132 -1.019205 -0.227976 25.406154 0.000000 0.000000 0.000000 12.321626 -17.787361 3.135850 40.299838 -46.891021 -16.287474 77.104466 1.564075 -3.714932 0.000000 0.000000 0.000000 -33.899209 6.120285 -2.387823 -55.056357 45.859608 -21.900644 -32.823847 -28.108118 6.309777 0.000000 0.000000 0.000000 
0.034672 0.906351 0.195637 0.600792 -5.755066 -22.151803 1.760265 -1.203942 -18.125907 -4.665343 1.080035 22.706118 5.214537 12.203479 11.399771 0.000000 0.000000 0.000000 0.821708 -0.522102 5.849298 14.855054 -5.866956 66.076888 -6.405512 -16.145339 3.763677 0.000000 0.000000 0.000000 -0.594731 -0.180218 3.569703 8.524759 1.186042 -50.489932 -0.083963 4.406888 41.398620 0.050644 -1.137608 17.697542 0.000000 0.000000 0.000000 10.740055 -14.416169 2.432130 43.682341 -47.097630 -17.513137 79.060604 4.800072 -1.920426 0.000000 0.000000 0.000000 -31.117214 1.467606 -2.473050 -65.053258 46.444295 -28.413623 -37.826340 -37.826342 9.739910 0.000000 0.000000 0.000000 
0.047882 0.907114 0.261418 1.477133 -5.590001 -20.609397 0.752155 -1.380850 -17.502764 -5.942122 1.468510 21.130237 5.209479 12.501146 13.915250 0.000000 0.000000 0.000000 1.246841 -1.007206 10.894254 10.334461 -2.255568 53.511012 -6.651572 -16.730405 3.990713 0.000000 0.000000 0.000000 -0.366940 0.049858 -2.259063 5.602114 0.359419 -40.191921 3.163069 3.291854 31.854164 -2.576814 2.788606 15.166629 0.000000 0.000000 0.000000 11.753831 -17.172789 3.436474 38.021703 -46.783363 -15.428063 79.517677 5.661777 1.365767 0.000000 0.000000 0.000000 -35.703012 3.393009 -0.659418 -59.968356 49.030483 -28.972374 -48.426701 -43.991045 17.389761 0.000000 0.000000 0.000000 
0.061112 0.901160 0.324429 1.488307 -3.906328 -19.880383 -0.183454 -1.539629 -16.684777 -7.123908 1.840423 23.103000 4.401789 11.260384 12.460607 0.000000 0.000000 0.000000 0.176667 -1.260542 14.351900 8.336347 -1.500244 49.592553 -7.131243 -17.921519 5.214380 0.000000 0.000000 0.000000 -0.934952 0.134040 -5.831256 5.198391 0.134520 -36.684347 2.925134 2.931979 30.640548 -1.124453 1.209840 2.465231 0.000000 0.000000 0.000000 16.621703 -15.754846 2.561274 37.758532 -49.863000 -17.423131 77.450256 8.316819 4.123472 0.000000 0.000000 0.000000 -35.995223 1.949258 -0.419890 -61.813902 52.375992 -32.676006 -45.359193 -47.741844 18.093813 0.000000 0.000000 0.000000 
0.073160 0.893222 0.378733 2.316368 -2.941743 -21.180296 -0.500655 -1.638991 -16.818606 -8.974670 2.875361 29.907745 4.264567 9.826193 5.085091 0.000000 0.000000 0.000000 -1.976403 -1.136329 15.689334 6.465178 -0.415222 54.672752 -5.434496 -14.826418 7.729322 0.000000 0.000000 0.000000 -1.977198 0.053765 -7.662789 3.920234 -0.197684 -29.071398 3.734276 2.055595 23.966019 -0.918909 1.146834 -4.699563 0.000000 0.000000 0.000000 21.424478 -16.285207 2.391411 30.496937 -56.800455 -17.613783 71.978918 5.984220 3.670171 0.000000 0.000000 0.000000 -36.417636 5.377474 0.926009 -57.899482 56.350444 -34.237870 -41.476767 -43.884397 15.530446 0.000000 0.000000 0.000000 
0.082757 0.888934 0.420292 1.903800 -0.725727 -21.153262 -1.247439 -1.676983 -15.407373 -8.958766 2.705422 32.360898 4.678286 9.634947 0.304768 0.000000 0.000000 0.000000 -2.858810 -1.137013 15.573056 6.999033 -1.475264 59.150081 -5.055793 -14.724914 12.603533 0.000000 0.000000 0.000000 -4.577891 -0.304035 -5.804774 6.360758 -0.752044 -28.638010 2.557764 2.288037 23.043084 0.043393 0.652311 -7.878503 0.000000 0.000000 0.000000 20.116869 -19.188655 3.330195 34.919439 -59.628202 -21.996266 60.197348 4.574734 1.912649 0.000000 0.000000 0.000000 -33.706677 8.749896 0.771029 -56.242513 56.992887 -32.808755 -32.732285 -38.528598 10.316683 0.000000 0.000000 0.000000 
0.088544 0.885763 0.448776 1.469500 -0.799324 -21.165355 -0.413118 -1.477672 -14.928607 -9.517093 3.078322 34.977109 4.220064 8.537010 -0.450179 0.000000 0.000000 0.000000 -1.755863 -1.173108 14.307124 8.175095 -2.463923 62.549222 -6.713037 -17.751602 14.342683 0.000000 0.000000 0.000000 -4.190159 -0.258155 -4.282139 5.563382 -0.810944 -25.677881 2.971109 3.709821 20.338242 -0.753897 1.361597 -6.216132 0.000000 0.000000 0.000000 20.124245 -23.995733 4.356103 40.065829 -59.745716 -25.442310 39.571294 5.555781 1.408801 0.000000 0.000000 0.000000 -30.548997 14.177668 1.103348 -55.393383 55.877597 -30.564652 -15.432871 -27.784314 2.944822 0.000000 0.000000 0.000000 
0.091658 0.881470 0.466778 1.025263 -1.797624 -20.164453 -0.372528 -1.496120 -15.413600 -8.136888 2.705382 36.733237 2.843631 6.326250 1.436630 0.000000 0.000000 0.000000 -1.325997 -0.937865 11.213071 9.659048 -3.270819 62.918970 -7.262146 -18.404291 9.142906 0.000000 0.000000 0.000000 -3.004471 -0.153722 -1.795763 4.420799 -0.719593 -23.037095 2.699012 5.084130 18.630533 0.463777 0.575223 -7.772817 0.000000 0.000000 0.000000 22.226433 -28.450908 4.784653 40.706235 -56.329014 -23.927308 25.817081 5.930961 0.952061 0.000000 0.000000 0.000000 -31.024637 18.783408 1.195047 -54.193526 52.687499 -26.766766 -1.910125 -21.869382 -0.412212 0.000000 0.000000 0.000000 
0.093188 0.887313 0.474699 1.024289 -2.497802 -19.193828 0.101274 -1.432638 -15.786845 -7.672382 2.690513 38.216715 3.029534 7.409111 4.061120 0.000000 0.000000 0.000000 -2.212023 -0.672613 8.783402 9.800701 -2.971297 60.296634 -8.053817 -19.807829 7.020528 0.000000 0.000000 0.000000 -3.965421 -0.229970 2.924178 3.989651 -0.389100 -26.474183 4.484753 5.487465 22.762918 -0.264867 1.473517 -11.052254 0.000000 0.000000 0.000000 22.490428 -30.391868 4.517211 44.696211 -51.658768 -22.802130 17.148844 3.490932 0.254078 0.000000 0.000000 0.000000 -32.847931 21.670818 0.455466 -55.036284 48.377785 -23.809522 6.138032 -16.521660 -1.620768 0.000000 0.000000 0.000000 
0.094533 0.895337 0.473692 -0.013832 -1.957077 -17.145608 0.746588 -1.467003 -17.428597 -5.688091 1.593558 38.875706 1.287359 5.562775 8.502579 0.000000 0.000000 0.000000 -2.119820 -0.470523 5.843069 8.619511 -2.346617 56.217400 -8.237666 -20.055834 2.518118 0.000000 0.000000 0.000000 -4.005228 -0.209807 7.982235 3.650652 -0.340502 -25.584758 3.777948 4.834967 20.048638 0.439739 1.072332 -13.616039 0.000000 0.000000 0.000000 26.500434 -29.008296 3.659534 46.852241 -51.211319 -23.557019 14.322098 3.518353 0.237260 0.000000 0.000000 0.000000 -37.228377 23.251250 -0.008095 -53.200578 42.875243 -19.168079 11.227875 -14.875253 -2.255206 0.000000 0.000000 0.000000 
0.096511 0.910039 0.465454 0.004603 -2.714111 -13.580642 1.912888 -1.299865 -18.333781 -5.889868 1.704001 35.284033 -0.042276 4.082514 11.202005 0.000000 0.000000 0.000000 -2.075745 -0.185089 2.383956 5.130122 0.087372 50.813387 -7.646729 -18.783186 3.266167 0.000000 0.000000 0.000000 -4.797752 -0.082219 13.690409 4.197806 -0.256211 -28.687343 4.048290 5.682243 22.337031 -0.060244 1.969972 -20.148105 0.000000 0.000000 0.000000 27.359951 -27.511065 3.262243 50.240982 -45.423029 -21.333256 13.097219 2.173676 0.083910 0.000000 0.000000 0.000000 -39.784506 22.518541 -1.030579 -54.849062 38.603909 -16.360815 13.741612 -14.946344 -2.699705 0.000000 0.000000 0.000000 
0.099542 0.927435 0.451243 -0.196874 -4.639465 -8.088248 3.443691 -1.053423 -20.032454 -6.128116 1.822481 29.415374 -1.911414 0.870477 11.470908 0.000000 0.000000 0.000000 -2.147489 0.188965 -1.971720 3.649757 1.093081 44.245620 -6.619295 -16.610951 3.587720 0.000000 0.000000 0.000000 -4.389481 0.010247 15.864946 3.332180 -0.028920 -28.945670 4.148100 6.826283 22.315520 0.539438 1.884581 -24.856392 0.000000 0.000000 0.000000 29.675323 -23.651463 2.848874 50.921845 -43.089957 -20.189469 12.290319 4.324394 0.237134 0.000000 0.000000 0.000000 -42.030958 20.265842 -1.186026 -53.587193 34.112467 -12.949348 11.260889 -13.371209 -2.079004 0.000000 0.000000 0.000000 
